HIERARCHY
ROOT Hips
{
	OFFSET 0.00000 0.00000 0.00000
	CHANNELS 6 Xposition Yposition Zposition Yrotation Zrotation Xrotation 
	JOINT Lumbar
	{
		OFFSET 0 0 0
		CHANNELS 3 Zrotation Xrotation Yrotation
		JOINT Neck
		{
			OFFSET 0.00 0.2701 0.00
			CHANNELS 3 Zrotation Xrotation Yrotation
			End Site
			{
				OFFSET 0.00 0.1379 0.00
			}
		}
		JOINT RightShoulder
		{
			OFFSET 0.0119 0.2289 0.1181
			CHANNELS 3 Zrotation Xrotation Yrotation
			JOINT RightElbow
			{
				OFFSET 0.00 -0.1475 0.00
				CHANNELS 2 Zrotation Yrotation
				JOINT RightWrist
				{
					OFFSET 0.00 -0.1605 0.00
					CHANNELS 2 Zrotation Xrotation
					End Site
					{
						OFFSET 0.0040 -0.1068 0.0006
					}
				}
			}
		}
		JOINT LeftShoulder
		{
			OFFSET 0.0119 0.2289 -0.1181
			CHANNELS 3 Zrotation Xrotation Yrotation
			JOINT LeftElbow
			{
				OFFSET 0.00 -0.1475 0.00
				CHANNELS 2 Zrotation Yrotation
				JOINT LeftWrist
				{
					OFFSET 0.00 -0.1605 0.00
					CHANNELS 2 Zrotation Xrotation
					End Site
					{
						OFFSET 0.0040 -0.1068 -0.0006
					}
				}
			}
		}
	}
	JOINT RightHip
	{
		OFFSET 0.0316 -0.0424 0.0458
		CHANNELS 3 Zrotation Xrotation Yrotation
		JOINT RightKnee
		{
			OFFSET 0.00 -0.2438 0.00
			CHANNELS 1 Zrotation
			JOINT RightAnkle
			{
				OFFSET 0.00 -0.2449 0.00
				CHANNELS 3 Zrotation Xrotation Yrotation
				End Site
				{
					OFFSET 0.1237 -0.0542 0.0051
				}
			}
		}
	}
	JOINT LeftHip
	{
		OFFSET 0.0316 -0.0424 -0.0458
		CHANNELS 3 Zrotation Xrotation Yrotation
		JOINT LeftKnee
		{
			OFFSET 0.00 -0.2438 0.00
			CHANNELS 1 Zrotation
			JOINT LeftAnkle
			{
				OFFSET 0.00 -0.2449 0.00
				CHANNELS 3 Zrotation Xrotation Yrotation
				End Site
				{
					OFFSET 0.1237 -0.0542 -0.0051
				}
			}
		}
	}
}
MOTION
Frames: 26
Frame Time: 0.02
-0.09801 0.59496 0.78258 727.46378 0 -6.41969 -1.6729 1.18447 -5.61167 -34.72367 5.73108 2.29789 44.70708 -34.27229 33.34363 137.62445 128.49655 -79.68975 -22.93043 29.31957 8.75103 -7.30605 18.29688 -79.96687 -13.57232 3.19774 11.53896 5.96797 1.95967 -17.36211 -5.26795 -2.94564 -4.14329 8.19263 6.73434 -7.56482 -48.12211 4.15351 -1.66216 -10.2204
-0.09333 0.59572 0.78518 727.75368 0 -6.27395 -1.71147 1.17008 -5.4316 -34.79851 5.5712 2.38886 45.19097 -34.32253 33.60828 137.62448 128.2918 -79.6775 -22.62169 29.14979 8.71508 -6.69647 18.29098 -79.70983 -13.46602 3.33506 10.78914 6.08224 2.01237 -16.83052 -5.03401 -2.98386 -4.33804 9.94166 6.90408 -7.05497 -50.92709 2.7582 -1.35381 -10.1026
-0.08907 0.59641 0.78746 727.95654 0 -6.0703 -1.78498 1.08584 -5.43605 -35.09146 5.64329 2.66172 46.51703 -34.64702 34.44825 137.62442 127.65553 -79.63683 -22.18508 29.09174 8.32868 -5.69414 18.31176 -79.67615 -13.31954 3.63265 10.07604 6.13754 2.19724 -16.27022 -4.82369 -3.01499 -4.53615 11.63621 6.94251 -6.55056 -53.44372 1.48952 -0.91612 -9.52868
-0.08465 0.59713 0.78986 728.19815 0 -5.8936 -1.843 1.03563 -5.35212 -35.28987 5.60931 2.84737 47.46068 -34.83418 35.02911 137.62444 127.26322 -79.57693 -21.75175 28.99064 8.10584 -4.88881 18.31495 -79.53295 -13.18886 3.84445 9.34456 6.21713 2.31496 -15.71567 -4.60738 -3.04892 -4.73103 13.32939 7.03863 -6.0374 -56.0028 0.21062 -0.53596 -9.12665
-0.08014 0.59785 0.79238 728.44193 0 -5.71379 -1.9004 0.97619 -5.27749 -35.46276 5.56903 3.04716 48.38032 -35.06747 35.59032 137.62457 126.68753 -79.65554 -21.54012 28.85556 7.87589 -4.01839 18.34515 -79.41706 -13.07325 4.10833 8.6151 6.30688 2.46389 -15.17985 -4.37281 -3.08434 -4.93362 15.14812 7.14421 -5.54213 -58.96012 -1.27815 -0.15532 -8.87117
-0.07589 0.59856 0.79456 728.66177 0 -5.5277 -1.96721 0.92008 -5.23158 -35.74146 5.60057 3.2632 49.55604 -35.27356 36.32823 137.6241 126.37936 -79.43532 -20.84838 28.81758 7.5734 -3.18623 18.32356 -79.3004 -12.91491 4.3034 7.89198 6.3622 2.57885 -14.60271 -4.18112 -3.1153 -5.1212 16.68375 7.19913 -5.01497 -61.00046 -2.29853 0.25137 -8.21068
-0.07224 0.59925 0.79592 728.8275 0 -5.32837 -2.0489 0.8796 -5.21372 -36.27836 5.77208 3.47232 51.26592 -35.32629 37.4704 137.6249 126.97545 -78.42904 -18.75948 29.0301 7.15497 -2.54343 18.15706 -79.1203 -12.64889 4.26162 7.17906 6.32989 2.56529 -13.92035 -4.10278 -3.13286 -5.26061 17.48481 7.13807 -4.3876 -60.69772 -2.02269 0.71613 -6.45102
-0.06883 0.59991 0.79693 728.9742 0 -5.1266 -2.13921 0.84666 -5.22087 -36.91203 6.00932 3.69325 53.20186 -35.34488 38.76207 137.62443 127.84321 -77.11803 -16.21086 29.33537 6.67453 -1.95278 17.93643 -78.93385 -12.34081 4.1467 6.47176 6.26624 2.51274 -13.19905 -4.06623 -3.14661 -5.38551 17.99453 7.03168 -3.73012 -59.45798 -1.28416 1.19864 -4.31599
-0.06532 0.60056 0.79808 729.13542 0 -4.93242 -2.227 0.81707 -5.22186 -37.48942 6.21893 3.91445 55.01637 -35.38775 39.94993 137.62281 128.54463 -75.92417 -13.94034 29.59163 6.22151 -1.34456 17.73666 -78.75546 -12.05064 4.07065 5.76144 6.22152 2.47999 -12.49579 -4.01002 -3.16408 -5.52106 18.61411 6.95138 -3.09584 -58.56788 -0.77792 1.66088 -2.41252
-0.0618 0.6013 0.79931 729.26769 0 -4.70861 -2.30992 0.75648 -5.20704 -38.12495 6.42743 4.11906 56.93902 -35.40436 41.30878 137.62903 129.40974 -74.81522 -11.37407 29.87914 5.75875 -0.69775 17.5525 -78.56274 -11.76299 3.97669 5.05394 6.15499 2.44504 -11.78881 -3.95817 -3.17332 -5.64055 19.3284 6.84402 -2.42535 -57.99021 -0.17507 2.17963 -0.23563
-0.05835 0.60186 0.80028 729.45826 0 -4.547 -2.40486 0.76309 -5.22884 -38.66113 6.65033 4.35749 58.67889 -35.46239 42.33985 137.61793 130.00715 -73.46264 -9.31531 30.12413 5.30723 -0.14783 17.32407 -78.39571 -11.46219 3.90021 4.34185 6.12717 2.40125 -11.08207 -3.90598 -3.19839 -5.78881 19.77538 6.78311 -1.81816 -56.5422 0.33548 2.58269 1.45472
-0.05501 0.60192 0.80069 729.80326 0 -4.55542 -2.52814 0.95419 -5.34409 -38.88465 6.90081 4.69606 59.85795 -35.65612 42.42468 137.56575 129.7718 -71.46751 -8.77965 30.21129 4.89329 0.13706 16.9739 -78.29831 -11.12184 3.89236 3.61286 6.21447 2.36318 -10.37595 -3.8498 -3.27267 -6.0307 19.56835 6.86867 -1.43488 -52.93014 0.47233 2.66579 1.71104
-0.05172 0.60179 0.80083 730.21013 0 -4.6272 -2.66356 1.21272 -5.49465 -39.00626 7.16161 5.06556 60.84078 -35.88898 42.17281 137.49544 129.26395 -69.24642 -8.76935 30.25504 4.4962 0.32577 16.58343 -78.22649 -10.77243 3.90344 2.87972 6.34191 2.31327 -9.67404 -3.79027 -3.36237 -6.30032 19.10064 7.00145 -1.10804 -48.47677 0.50075 2.63079 1.46322
-0.04842 0.60174 0.80107 730.5965 0 -4.67184 -2.79504 1.44034 -5.62928 -39.18332 7.41403 5.41368 61.91037 -36.09399 42.07477 137.42864 128.90191 -67.1577 -8.51333 30.32991 4.09872 0.56384 16.21941 -78.14357 -10.43621 3.90334 2.14982 6.45101 2.2543 -8.97587 -3.7276 -3.44184 -6.54988 18.74352 7.10909 -0.72861 -44.39997 0.58194 2.64629 1.4418
-0.04511 0.60172 0.80142 730.95001 0 -4.70957 -2.92018 1.66979 -5.76471 -39.32625 7.68459 5.79324 63.00049 -36.34028 41.97748 137.37989 128.46006 -64.93194 -8.27132 30.36063 3.66797 0.77833 15.81851 -78.05792 -10.06014 3.91135 1.41325 6.55976 2.25406 -8.24982 -3.68657 -3.53407 -6.82926 18.40765 7.23226 -0.46394 -40.30353 0.66471 2.67459 1.44117
-0.04181 0.60159 0.80147 731.38691 0 -4.77652 -3.06133 1.91076 -5.90611 -39.51361 7.91876 6.11451 63.99578 -36.51052 41.79839 137.29159 128.11155 -62.94329 -8.12999 30.47101 3.31163 1.01739 15.48637 -77.98461 -9.76552 3.90832 0.69098 6.67872 2.13037 -7.58664 -3.59852 -3.60433 -7.05478 17.97169 7.33284 0.02859 -36.07442 0.71225 2.64954 1.27765
-0.03853 0.60118 0.80079 732.03884 0 -4.91101 -3.24296 2.17202 -6.0582 -39.85836 8.0507 6.26682 64.79562 -36.45901 41.45863 137.07829 128.12748 -61.65534 -8.14935 30.81814 3.1552 1.36731 15.34715 -77.93446 -9.69806 3.86674 -0.00368 6.82026 1.65841 -7.06843 -3.38613 -3.60238 -7.11195 17.30472 7.37757 1.13949 -31.57145 0.68781 2.49179 0.74069
-0.03525 0.60065 0.79981 732.77234 0 -5.07223 -3.44015 2.4414 -6.21412 -40.24923 8.14507 6.35955 65.50224 -36.33017 41.05019 136.82932 128.23843 -60.61751 -8.25263 31.24543 3.07372 1.74173 15.28 -77.89669 -9.7131 3.81444 -0.68156 6.96995 1.0648 -6.61873 -3.12537 -3.57921 -7.11633 16.55076 7.39493 2.48453 -26.99128 0.62955 2.28684 0.0636
-0.03197 0.60018 0.79893 733.46913 0 -5.21976 -3.631 2.70399 -6.36668 -40.61177 8.25589 6.4796 66.23807 -36.23831 40.68411 136.61034 128.27766 -59.47231 -8.31187 31.6313 2.95917 2.09253 15.18463 -77.85639 -9.69057 3.76962 -1.35855 7.11352 0.5337 -6.15597 -2.88352 -3.57088 -7.15354 15.85039 7.413 3.74041 -22.52384 0.58519 2.11299 -0.5199
-0.02871 0.5997 0.79819 734.16798 0 -5.37629 -3.82019 2.98275 -6.52855 -41.00101 8.37012 6.59913 67.02222 -36.14002 40.26087 136.33375 128.42602 -58.29073 -8.41209 32.03625 2.84083 2.49319 15.06887 -77.80409 -9.668 3.71423 -2.07115 7.26924 -0.02868 -5.61697 -2.65482 -3.54128 -7.15486 15.08207 7.4816 4.92804 -17.69303 0.54351 1.89494 -1.24522
-0.0254 0.59921 0.79709 734.87931 0 -5.51926 -4.01513 3.22796 -6.66996 -41.34809 8.46773 6.70593 67.68675 -36.03625 39.94278 136.16743 128.3757 -57.24944 -8.4426 32.42176 2.74813 2.79639 15.01299 -77.77913 -9.66526 3.67831 -2.70614 7.40036 -0.55419 -5.25303 -2.38697 -3.55055 -7.21744 14.4372 7.43862 6.30597 -13.61884 0.48963 1.75847 -1.70418
-0.02203 0.59872 0.79515 735.62019 0 -5.62037 -4.23255 3.38576 -6.7665 -41.55772 8.53208 6.78548 68.03844 -35.93585 39.95046 136.32751 127.73249 -56.51778 -8.23633 32.72798 2.70686 2.83132 15.10688 -77.82894 -9.69701 3.69639 -3.12536 7.46686 -0.95177 -5.35692 -2.02512 -3.67409 -7.46742 14.16343 7.08668 8.22132 -11.59881 0.40897 1.86631 -1.37138
-0.0186 0.59823 0.79286 736.36759 0 -5.70586 -4.45301 3.50754 -6.83981 -41.72573 8.58013 6.85527 68.27476 -35.83231 40.06485 136.59749 126.89132 -55.92285 -7.95857 33.01321 2.68894 2.76694 15.25819 -77.90528 -9.74592 3.73462 -3.46772 7.50669 -1.30714 -5.63528 -1.625 -3.8372 -7.77996 14.01637 6.62424 10.30642 -10.35717 0.31745 2.0571 -0.767
-0.01517 0.59773 0.79069 737.10197 0 -5.79724 -4.66548 3.64113 -6.91533 -41.91962 8.63351 6.93382 68.56856 -35.73046 40.11947 136.80855 126.15592 -55.27747 -7.72688 33.31222 2.66091 2.74347 15.38226 -77.96786 -9.78707 3.7653 -3.84936 7.55563 -1.6796 -5.83186 -1.24105 -3.98077 -8.05993 13.80704 6.21756 12.27001 -8.79917 0.23292 2.20552 -0.29925
-0.01188 0.59726 0.78866 737.88214 0 -5.89611 -4.90731 3.79551 -7.02619 -42.08537 8.695 6.9924 68.83833 -35.62545 40.2178 137.05605 125.35698 -54.59169 -7.44226 33.59612 2.63331 2.73685 15.51431 -78.03813 -9.83095 3.78952 -4.21354 7.61943 -2.0658 -6.03773 -0.86107 -4.1296 -8.35463 13.61512 5.78798 14.43329 -7.08076 0.14053 2.37179 0.21786
-0.00826 0.59674 0.78625 738.56687 0 -5.97351 -5.08738 3.89638 -7.05791 -42.29961 8.73542 7.09058 69.13115 -35.52649 40.25295 137.25447 124.64212 -54.01885 -7.24832 33.90543 2.6095 2.67346 15.64161 -78.09846 -9.87215 3.83125 -4.59421 7.6435 -2.41095 -6.2693 -0.46375 -4.27788 -8.63535 13.41717 5.37843 16.21257 -5.8816 0.05982 2.52143 0.70005
